<?xml version="1.0" encoding="UTF-8" standalone="no"?>
<svg
   viewBox="0 0 500 500"
   version="1.1"
   id="svg70"
   sodipodi:docname="pyapp-kit-logo.svg"
   inkscape:export-filename="pyapp-kit-logo.png"
   inkscape:export-xdpi="96"
   inkscape:export-ydpi="96"
   inkscape:version="1.2.1 (9c6d41e4, 2022-07-14)"
   xmlns:inkscape="http://www.inkscape.org/namespaces/inkscape"
   xmlns:sodipodi="http://sodipodi.sourceforge.net/DTD/sodipodi-0.dtd"
   xmlns="http://www.w3.org/2000/svg"
   xmlns:svg="http://www.w3.org/2000/svg">
  <sodipodi:namedview
     id="namedview72"
     pagecolor="#ffffff"
     bordercolor="#000000"
     borderopacity="0.25"
     inkscape:showpageshadow="2"
     inkscape:pageopacity="0.0"
     inkscape:pagecheckerboard="0"
     inkscape:deskcolor="#d1d1d1"
     showgrid="false"
     inkscape:zoom="1.6328077"
     inkscape:cx="163.52201"
     inkscape:cy="266.10604"
     inkscape:window-width="1635"
     inkscape:window-height="1027"
     inkscape:window-x="0"
     inkscape:window-y="25"
     inkscape:window-maximized="0"
     inkscape:current-layer="g234" />
  <defs
     id="defs64">
    <linearGradient
       x1="53.583295"
       y1="73.775032"
       x2="319.43159"
       y2="337.55808"
       id="a"
       gradientTransform="matrix(0.76912126,0,0,0.92264137,33.347682,40.813804)"
       gradientUnits="userSpaceOnUse">
      <stop
         stop-color="#387EB8"
         offset="0"
         id="stop54" />
      <stop
         stop-color="#366994"
         offset="1"
         id="stop56" />
    </linearGradient>
    <linearGradient
       x1="139.86086"
       y1="223.73063"
       x2="407.94363"
       y2="477.7231"
       id="b"
       gradientTransform="matrix(0.94655037,0,0,0.74969394,33.347682,40.813804)"
       gradientUnits="userSpaceOnUse">
      <stop
         stop-color="#FFE052"
         offset="0"
         id="stop59" />
      <stop
         stop-color="#FFC331"
         offset="1"
         id="stop61" />
    </linearGradient>
  </defs>
  <g
     id="g234"
     transform="translate(6.4434201,1.4786125)">
    <path
       d="m 242.00211,64.596195 c -102.98823,0 -96.55826,44.663595 -96.55826,44.663595 l 0.11541,30.38421 h 34.90027 l 0.31253,-25.41579 c 0,0 -1.85916,-17.531855 60.50812,-17.531855 62.14153,0 64.70492,17.531855 64.70492,17.531855 v 39.30935 H 55.212791 c 0,0 -20.26962,-1.4833 -20.26962,18.90257 0,56.11337 -0.121304,194.22411 -0.121304,239.10756 0,20.67229 20.630163,20.89889 20.630163,20.89889 H 84.814421 V 301.98797 c 0,0 -1.849891,-57.52101 56.603649,-57.52101 h 145.13222 c 0,0 54.76555,0.88451 54.76555,-52.92744 v -88.97927 c 0,0 8.31777,-37.964055 -99.31373,-37.964055 z m 0.155,120.477125 c 9.77006,-0.008 17.69106,7.9109 17.68011,17.67842 0.0109,9.76922 -7.91005,17.69106 -17.68011,17.6818 -9.76668,0.009 -17.68769,-7.91258 -17.6801,-17.6818 -0.008,-9.76752 7.91342,-17.68684 17.6801,-17.67842 z"
       fill="url(#a)"
       style="fill:url(#a);stroke-width:0.842391"
       id="path66"
       sodipodi:nodetypes="sccccscccsscccscscsccccc" />
    <path
       d="m 97.955726,431.43318 145.134754,-0.1432 c 0,0 125.51799,0 183.56634,0 25.57752,0 25.26668,-25.03503 25.26668,-25.03503 l 0.36728,-234.18815 c 0,0 0.39593,-21.27712 -20.8138,-21.27712 -48.19405,0 -77.019,0 -77.019,0 v 48.22016 c 0,0 1.85074,57.52101 -56.6028,57.52101 H 152.72211 c 0,0 -54.766384,-0.88367 -54.766384,52.93081 z"
       fill="url(#b)"
       style="fill:url(#b);stroke-width:0.842391"
       id="path68" />
  </g>
</svg>
